<?xml version="1.0" encoding="UTF-8"?>
<!DOCTYPE svg PUBLIC "-//W3C//DTD SVG 1.1//EN" "http://www.w3.org/Graphics/SVG/1.1/DTD/svg11.dtd">
<!-- Creator: CorelDRAW 2019 (64 Bit) -->
<svg xmlns="http://www.w3.org/2000/svg" xml:space="preserve" width="5.5561mm" height="5.5562mm" version="1.1" style="shape-rendering:geometricPrecision; text-rendering:geometricPrecision; image-rendering:optimizeQuality; fill-rule:evenodd; clip-rule:evenodd"
viewBox="0 0 12.43 12.43"
 xmlns:xlink="http://www.w3.org/1999/xlink"
 xmlns:xodm="http://www.corel.com/coreldraw/odm/2003">
 <defs>
  <style type="text/css">
   <![CDATA[
    .fil0 {fill:#202020}
   ]]>
  </style>
 </defs>
 <g id="Camada_x0020_1">
  <metadata id="CorelCorpID_0Corel-Layer"/>
  <path class="fil0" d="M6.22 3.03c0.56,0 1.08,0.17 1.58,0.44 0.5,0.28 0.89,0.67 1.17,1.17 0.28,0.5 0.44,1.03 0.44,1.58 0,0.58 -0.17,1.11 -0.44,1.61 -0.28,0.5 -0.67,0.89 -1.17,1.17 -0.5,0.28 -1.03,0.42 -1.58,0.42 -0.58,0 -1.11,-0.14 -1.61,-0.42 -0.5,-0.28 -0.89,-0.67 -1.17,-1.17 -0.28,-0.5 -0.42,-1.03 -0.42,-1.61 0,-0.55 0.14,-1.08 0.42,-1.58 0.28,-0.5 0.67,-0.89 1.17,-1.17 0.5,-0.28 1.03,-0.44 1.61,-0.44zm0 5.27c0.56,0 1.05,-0.19 1.47,-0.61 0.39,-0.39 0.61,-0.89 0.61,-1.47 0,-0.55 -0.22,-1.05 -0.61,-1.47 -0.42,-0.39 -0.92,-0.61 -1.47,-0.61 -0.58,0 -1.08,0.22 -1.47,0.61 -0.42,0.42 -0.61,0.92 -0.61,1.47 0,0.58 0.19,1.08 0.61,1.47 0.39,0.42 0.89,0.61 1.47,0.61zm4.08 -5.41c0,-0.19 -0.08,-0.36 -0.22,-0.53 -0.17,-0.14 -0.33,-0.22 -0.53,-0.22 -0.22,0 -0.39,0.08 -0.53,0.22 -0.17,0.17 -0.22,0.33 -0.22,0.53 0,0.22 0.06,0.39 0.22,0.53 0.14,0.17 0.31,0.22 0.53,0.22 0.19,0 0.36,-0.06 0.5,-0.22 0.14,-0.14 0.22,-0.31 0.25,-0.53zm2.11 0.75c0,0.53 0.03,1.39 0.03,2.58 0,1.22 -0.03,2.08 -0.06,2.61 -0.03,0.53 -0.11,0.97 -0.22,1.36 -0.17,0.47 -0.44,0.89 -0.78,1.22 -0.33,0.33 -0.75,0.58 -1.19,0.75 -0.39,0.14 -0.86,0.22 -1.39,0.25 -0.53,0.03 -1.39,0.03 -2.58,0.03 -1.22,0 -2.08,0 -2.61,-0.03 -0.53,-0.03 -0.97,-0.11 -1.36,-0.28 -0.47,-0.14 -0.89,-0.39 -1.22,-0.72 -0.33,-0.33 -0.58,-0.75 -0.75,-1.22 -0.14,-0.39 -0.22,-0.83 -0.25,-1.36 -0.03,-0.53 -0.03,-1.39 -0.03,-2.61 0,-1.19 0,-2.05 0.03,-2.58 0.03,-0.53 0.11,-1 0.25,-1.39 0.17,-0.44 0.42,-0.86 0.75,-1.19 0.33,-0.33 0.75,-0.61 1.22,-0.78 0.39,-0.11 0.83,-0.19 1.36,-0.22 0.53,-0.03 1.39,-0.06 2.61,-0.06 1.19,0 2.05,0.03 2.58,0.06 0.53,0.03 1,0.11 1.39,0.22 0.44,0.17 0.86,0.44 1.19,0.78 0.33,0.33 0.61,0.75 0.78,1.19 0.11,0.39 0.19,0.86 0.25,1.39zm-1.33 6.24c0.11,-0.31 0.17,-0.8 0.22,-1.5 0,-0.39 0.03,-0.97 0.03,-1.72l0 -0.89c0,-0.75 -0.03,-1.33 -0.03,-1.72 -0.06,-0.69 -0.11,-1.19 -0.22,-1.5 -0.22,-0.56 -0.64,-0.97 -1.19,-1.19 -0.31,-0.11 -0.8,-0.17 -1.5,-0.22 -0.42,0 -1,-0.03 -1.72,-0.03l-0.89 0c-0.75,0 -1.33,0.03 -1.72,0.03 -0.69,0.06 -1.19,0.11 -1.5,0.22 -0.58,0.22 -0.97,0.64 -1.19,1.19 -0.11,0.31 -0.19,0.8 -0.22,1.5 -0.03,0.42 -0.03,1 -0.03,1.72l0 0.89c0,0.75 0,1.33 0.03,1.72 0.03,0.69 0.11,1.19 0.22,1.5 0.22,0.58 0.64,0.97 1.19,1.19 0.31,0.11 0.8,0.19 1.5,0.22 0.39,0.03 0.97,0.03 1.72,0.03l0.89 0c0.75,0 1.33,0 1.72,-0.03 0.69,-0.03 1.19,-0.11 1.5,-0.22 0.56,-0.22 0.97,-0.64 1.19,-1.19z"/>
 </g>
</svg>
