<?xml version="1.0" encoding="UTF-8"?>
<!DOCTYPE svg PUBLIC "-//W3C//DTD SVG 1.1//EN" "http://www.w3.org/Graphics/SVG/1.1/DTD/svg11.dtd">
<!-- Creator: CorelDRAW 2019 (64 Bit) -->
<svg xmlns="http://www.w3.org/2000/svg" xml:space="preserve" width="61.9902mm" height="33.2138mm" version="1.1" style="shape-rendering:geometricPrecision; text-rendering:geometricPrecision; image-rendering:optimizeQuality; fill-rule:evenodd; clip-rule:evenodd"
viewBox="0 0 6204.06 3324.08"
 xmlns:xlink="http://www.w3.org/1999/xlink"
 xmlns:xodm="http://www.corel.com/coreldraw/odm/2003">
 <defs>
  <style type="text/css">
   <![CDATA[
    .fil0 {fill:#FFCB47}
   ]]>
  </style>
 </defs>
 <g id="Camada_x0020_1">
  <metadata id="CorelCorpID_0Corel-Layer"/>
  <path class="fil0" d="M2662.75 1222.77c242.96,-242.95 635.6,-242.96 878.55,0 242.95,242.95 242.95,635.6 0,878.54 -242.95,242.95 -635.6,242.95 -878.54,0 -242.96,-242.96 -242.95,-635.6 -0.01,-878.54zm200.05 678.48c132.34,132.35 346.11,132.35 478.45,0.01 132.35,-132.36 132.35,-346.11 0,-478.46 -132.34,-132.35 -346.11,-132.35 -478.45,0 -132.34,132.35 -132.35,346.1 0,478.45zm1136.35 -1163.83c33.65,1.91 66.53,16.62 90.65,43.66l-0.11 0.1c466.88,523.24 444.78,1319.4 -52.17,1816.36 -517.41,517.42 -1353.58,517.42 -1870.99,0 -517.41,-517.41 -517.41,-1353.59 0,-1871 406.49,-406.49 1030.17,-505.22 1541.63,-241.29 102.87,53.08 91.55,205.83 -20.38,241.56 -31.99,10.2 -67.83,8.24 -99.92,-8.32 -410.72,-211.88 -910.25,-131.68 -1235.65,193.74 -414.76,414.76 -414.77,1084.86 0,1499.62 414.75,414.76 1084.87,414.76 1499.63,0 398.56,-398.57 415.64,-1037.62 42.17,-1456.03 -77.97,-87.36 -10.51,-224.95 105.14,-218.39zm804.53 -322.04c524.64,270.56 994.92,666.99 1374.89,1170.76 33.97,45.04 33.97,106.76 0,151.78 -741.23,982.8 -1852.71,1586.15 -3076.55,1586.15 -1223.67,0 -2335.54,-603.41 -3076.56,-1586.16 -33.96,-45.03 -33.96,-106.75 0,-151.77 741.13,-982.76 1852.81,-1586.15 3076.56,-1586.15 597.46,0 1176.67,144.65 1701.66,415.39zm-3261.22 2282.83c986.82,498.48 2132.29,498.48 3119.12,0 475.54,-240.22 904.72,-590.82 1257.3,-1036.17 -1487.68,-1879.12 -4146.04,-1879.14 -5633.71,0 352.57,445.35 781.75,795.96 1257.29,1036.17z"/>
 </g>
</svg>
